# xmcd
#
# Track frame offsets:
#	150
#	16938
#	41098
#	56282
#	76194
#	92551
#	104510
#	119714
#
# Disc length: 1814 seconds
#
# Revision: 2
# Processed by: cddbd v1.5.2PL0 Copyright (c) Steve Scherf et al.
# Submitted via: EasyCDDAExtractor 15.2.1.1
#
DISCID=5d071408
DTITLE=陳洲宏 - 還有我 新歌精選
DYEAR=2013
DGENRE=流行歌曲
TTITLE0=還有我
TTITLE1=未來的愛
TTITLE2=私房歌
TTITLE3=你看你看月亮的臉
TTITLE4=遠離這個城市
TTITLE5=小燕子
TTITLE6=煙花江畔
TTITLE7=還有我【PIANO DEMO】
EXTD=
EXTT0=
EXTT1=
EXTT2=
EXTT3=
EXTT4=
EXTT5=
EXTT6=
EXTT7=
PLAYORDER=
